<svg style="display: block; width: 16px; height: 16px;" viewBox="0 0 12 12" version="1.1" xmlns="http://www.w3.org/2000/svg" class=""><rect fill="#000000" width="16px" height="16px" x="0px" y="0px"></rect><g transform="matrix(0.046875,0,0,0.046875,0,0)"><g fill="none" transform="matrix(1,0,0,1,0,0)"><path d="M128 64V128H0L2.79753e-06 64C4.34256e-06 28.6538 28.6538 -1.54503e-06 64 0C99.3462 1.54503e-06 128 28.6538 128 64Z" fill="white" stroke="#000000" stroke-width="0.8px" dataisgeon="true" stroke-linecap="square" vector-effect="non-scaling-stroke"></path></g><g fill="none" transform="matrix(1,0,0,1,128,0)"><path d="M128 128C128 57.3076 70.6925 6.18013e-06 1.11901e-05 0L0 128L128 128Z" fill="white" stroke="#000000" stroke-width="0.8px" dataisgeon="true" stroke-linecap="square" vector-effect="non-scaling-stroke"></path></g><g fill="none" transform="matrix(1,0,0,1,0,128)"><path d="M128 0C57.3075 8.42999e-07 -8.42999e-07 57.3075 0 128H128V0Z" fill="white" stroke="#000000" stroke-width="0.8px" dataisgeon="true" stroke-linecap="square" vector-effect="non-scaling-stroke"></path></g><g fill="none" transform="matrix(1,0,0,1,128,128)"><path d="M64 128H0L5.59506e-06 0L64 5.59506e-06C99.3462 8.68512e-06 128 28.6538 128 64C128 99.3462 99.3462 128 64 128Z" fill="white" stroke="#000000" stroke-width="0.8px" dataisgeon="true" stroke-linecap="square" vector-effect="non-scaling-stroke"></path></g></g></svg>
