<svg viewBox="0 0 24 24" version="1.1" xmlns="http://www.w3.org/2000/svg" class=""><rect fill="#000000" width="24px" height="24px" x="0" y="0"/><g transform="matrix(0.052177734375,0,0,0.052177734375,5.0625,5.0625)"><path d="M0.0541 0C70.7217 0.0292317 128 57.3256 128 128C57.3177 128 0.0164917 70.7089 7.62806e-06 0.0305091C7.62851e-06 0.0203397 -4.44317e-10 0.01017 0 0H0.0541Z" fill="#ffffff"/><path fill-rule="evenodd" clip-rule="evenodd" d="M80 64C80 72.8366 72.8366 80 64 80C55.1634 80 48 72.8366 48 64C48 55.1634 55.1634 48 64 48C72.8366 48 80 55.1634 80 64ZM64 72C68.4183 72 72 68.4183 72 64C72 59.5817 68.4183 56 64 56C59.5817 56 56 59.5817 56 64C56 68.4183 59.5817 72 64 72Z" fill="#000000"/></g><g transform="matrix(0.052177734375,0,0,0.052177734375,12.258750000000001,5.0625)"><circle cx="64" cy="64" r="64" fill="#ffffff"/><path d="M64 96C81.6731 96 96 81.6731 96 64C96 46.3269 81.6731 32 64 32" stroke="#000000" fill="none" stroke-width="9.91802358225716px" stroke-linecap="square"/></g><g transform="matrix(0.052177734375,0,0,0.052177734375,5.0625,12.258750000000001)"><g fill="none"><path d="M0 0C0 70.6925 57.3075 128 128 128V0H0Z" fill="#ffffff"/><circle cx="16" cy="16" r="8" fill="#ffffff" stroke="#ffffff" stroke-width="9.91802358225716px" stroke-linecap="square"/><line x1="0.5" y1="-0.5" x2="181.5" y2="-0.5" transform="matrix(-0.707107 0.707107 0.707107 0.707107 128.71 0)" stroke="#000000" stroke-linecap="square" fill="none" stroke-width="9.91802358225716px"/><path fill-rule="evenodd" clip-rule="evenodd" d="M48 32C48 40.8366 40.8366 48 32 48C23.1634 48 16 40.8366 16 32C16 23.1634 23.1634 16 32 16C40.8366 16 48 23.1634 48 32ZM32 40C36.4183 40 40 36.4183 40 32C40 27.5817 36.4183 24 32 24C27.5817 24 24 27.5817 24 32C24 36.4183 27.5817 40 32 40Z" fill="#000000"/></g></g><g transform="matrix(0.052177734375,0,0,0.052177734375,12.258750000000001,12.258750000000001)"><circle cx="64" cy="64" r="64" fill="#ffffff"/><circle cx="64" cy="96" r="11.5" fill="#ffffff" stroke="#ffffff" stroke-width="9.91802358225716px" stroke-linecap="square"/><circle cx="64" cy="96" r="9" fill="#000000" stroke="#000000" stroke-width="9.91802358225716px" stroke-linecap="square"/></g></svg>