<?xml version="1.0" standalone="no"?>
<!DOCTYPE svg PUBLIC "-//W3C//DTD SVG 20010904//EN"
 "http://www.w3.org/TR/2001/REC-SVG-20010904/DTD/svg10.dtd">
<svg version="1.0" xmlns="http://www.w3.org/2000/svg"
 width="700.000000pt" height="700.000000pt" viewBox="0 0 700.000000 700.000000"
 preserveAspectRatio="xMidYMid meet">
<metadata>
Created by potrace 1.11, written by Peter Selinger 2001-2013
</metadata>
<g transform="translate(0.000000,700.000000) scale(0.100000,-0.100000)"
fill="#000000" stroke="none">
<path d="M2307 5733 c-13 -21 -86 -146 -162 -278 -76 -132 -193 -334 -260
-450 -67 -115 -202 -349 -300 -520 -98 -170 -185 -321 -194 -335 -8 -14 -22
-36 -29 -50 -26 -48 -216 -376 -269 -463 -29 -49 -53 -91 -53 -94 0 -3 -16
-31 -35 -63 -19 -32 -35 -65 -35 -74 0 -10 49 -101 109 -204 108 -187 466
-806 504 -872 28 -50 110 -192 122 -211 6 -9 18 -32 29 -50 10 -19 129 -225
264 -459 135 -234 261 -452 279 -485 19 -33 40 -65 48 -71 10 -7 426 -10 1371
-10 l1358 1 38 65 c21 36 74 128 119 205 44 77 85 147 90 155 8 13 151 261
201 350 11 19 37 64 58 100 21 36 47 81 58 100 11 19 43 76 72 125 29 50 61
106 72 125 90 158 405 703 424 732 13 21 24 39 24 41 0 2 45 82 100 176 55 95
100 178 100 186 0 7 -75 143 -166 302 -92 158 -174 302 -184 318 -9 17 -111
192 -225 390 -114 198 -216 374 -225 390 -10 17 -31 54 -49 83 -17 29 -31 54
-31 56 0 2 -17 33 -38 67 -46 76 -225 386 -253 438 -11 20 -57 99 -102 176
l-83 140 -1362 3 -1362 2 -23 -37z m2577 -372 c18 -31 43 -74 55 -96 12 -22
30 -53 40 -70 18 -30 152 -261 191 -329 22 -39 34 -61 104 -181 26 -44 51 -87
56 -95 13 -21 258 -446 288 -500 14 -25 91 -157 170 -295 148 -255 202 -350
202 -357 0 -2 -519 -3 -1152 -3 -1142 0 -1153 0 -1171 -20 -15 -16 -232 -387
-355 -605 -14 -25 -35 -61 -47 -80 -12 -19 -25 -42 -28 -50 -4 -8 -17 -31 -29
-50 -12 -19 -31 -53 -43 -75 -12 -22 -69 -121 -127 -220 -214 -369 -412 -711
-437 -756 -58 -103 -86 -149 -91 -149 -3 0 -16 21 -30 48 -13 26 -34 63 -46
82 -22 36 -272 469 -733 1270 -145 250 -278 481 -298 514 -40 66 -41 56 25
171 74 127 180 309 305 527 75 130 156 270 180 310 24 40 46 80 50 88 4 8 13
24 20 35 12 21 89 153 125 215 11 19 46 80 77 135 32 55 80 138 107 185 27 47
53 92 58 100 22 34 140 243 140 247 0 2 9 17 21 32 l21 28 1159 1 1159 0 34
-57z m936 -2284 c0 -5 -12 -29 -27 -55 -16 -26 -32 -54 -38 -64 -14 -24 -101
-174 -169 -293 -32 -55 -69 -118 -81 -140 -13 -22 -96 -166 -185 -320 -89
-154 -170 -293 -180 -310 -164 -285 -217 -378 -239 -417 -14 -27 -28 -48 -31
-48 -5 0 -99 155 -140 232 -8 15 -44 78 -80 139 -36 62 -78 136 -95 165 -16
29 -112 194 -211 366 -100 172 -238 411 -307 530 -69 119 -121 218 -116 220
22 7 1899 2 1899 -5z"/>
</g>
</svg>
