<svg style="display: block; width: 12px; height: 12px;" viewBox="0 0 12 12" version="1.1" xmlns="http://www.w3.org/2000/svg" class=""><rect fill="#000000" width="12px" height="12px" x="0px" y="0px"></rect><g transform="matrix(0.046875,0,0,0.046875,0,0)"><g fill="none" transform="matrix(1,0,0,1,0,0)"><path d="M128 0C57.3075 8.42999e-07 -8.42999e-07 57.3075 0 128H128V0Z" fill="white" stroke="#000000" stroke-width="0.8px" dataisgeon="true" stroke-linecap="square" vector-effect="non-scaling-stroke"></path></g><g fill="none" transform="matrix(1,0,0,1,128,0)"><path d="M0 64L5.59506e-06 0L128 1.11901e-05V64C128 99.3462 99.3462 128 64 128C28.6538 128 -4.6351e-06 99.3462 0 64Z" fill="white" stroke="#000000" stroke-width="0.8px" dataisgeon="true" stroke-linecap="square" vector-effect="non-scaling-stroke"></path></g><g fill="none" transform="matrix(1,0,0,1,0,128)"><path d="M64 0H128V128H64C28.6538 128 0 99.3462 0 64C0 28.6538 28.6538 0 64 0Z" fill="white" stroke="#000000" stroke-width="0.8px" dataisgeon="true" stroke-linecap="square" vector-effect="non-scaling-stroke"></path></g><g fill="none" transform="matrix(1,0,0,1,128,128)"><rect width="128" height="128" fill="white" stroke="#000000" stroke-width="0.8px" dataisgeon="true" stroke-linecap="square" vector-effect="non-scaling-stroke"></rect></g></g></svg>